0
SECTION
2
HEADER
9
$INSUNITS
70
4
9
$ACADVER
1
AC1014
9
$HANDSEED
5
FFFF
0
ENDSEC
0
SECTION
2
TABLES
0
TABLE
2
VPORT
5
8
100
AcDbSymbolTable
0
ENDTAB
0
TABLE
2
LTYPE
5
5
100
AcDbSymbolTable
0
LTYPE
5
14
100
AcDbSymbolTableRecord
100
AcDbLinetypeTableRecord
2
BYBLOCK
70
0
0
LTYPE
5
15
100
AcDbSymbolTableRecord
100
AcDbLinetypeTableRecord
2
BYLAYER
70
0
0
ENDTAB
0
TABLE
2
LAYER
5
2
100
AcDbSymbolTable
70
2
0
LAYER
5
50
100
AcDbSymbolTableRecord
100
AcDbLayerTableRecord
2
0
70
0
6
CONTINUOUS
0
ENDTAB
0
TABLE
2
STYLE
5
3
100
AcDbSymbolTable
70
1
0
STYLE
5
11
100
AcDbSymbolTableRecord
100
AcDbTextStyleTableRecord
2
STANDARD
70
0
0
ENDTAB
0
TABLE
2
VIEW
5
6
100
AcDbSymbolTable
70
0
0
ENDTAB
0
TABLE
2
UCS
5
7
100
AcDbSymbolTable
70
0
0
ENDTAB
0
TABLE
2
APPID
5
9
100
AcDbSymbolTable
70
2
0
APPID
5
12
100
AcDbSymbolTableRecord
100
AcDbRegAppTableRecord
2
ACAD
70
0
0
ENDTAB
0
TABLE
2
DIMSTYLE
5
A
100
AcDbSymbolTable
70
1
0
ENDTAB
0
TABLE
2
BLOCK_RECORD
5
1
100
AcDbSymbolTable
70
1
0
BLOCK_RECORD
5
1F
100
AcDbSymbolTableRecord
100
AcDbBlockTableRecord
2
*MODEL_SPACE
0
BLOCK_RECORD
5
1B
100
AcDbSymbolTableRecord
100
AcDbBlockTableRecord
2
*PAPER_SPACE
0
ENDTAB
0
ENDSEC
0
SECTION
2
BLOCKS
0
BLOCK
5
20
100
AcDbEntity
100
AcDbBlockBegin
2
*MODEL_SPACE
0
ENDBLK
5
21
100
AcDbEntity
100
AcDbBlockEnd
0
BLOCK
5
1C
100
AcDbEntity
100
AcDbBlockBegin
2
*PAPER_SPACE
0
ENDBLK
5
1D
100
AcDbEntity
100
AcDbBlockEnd
0
ENDSEC
0
SECTION
2
ENTITIES
0
CIRCLE
5
100
100
AcDbEntity
8
0
100
AcDbCircle
10
39.999999999999993
20
-20.000000000000021
30
0
40
1.749999999999998
210
0
220
-0
230
1
0
CIRCLE
5
101
100
AcDbEntity
8
0
100
AcDbCircle
10
-39.999999999999993
20
-20.000000000000018
30
0
40
1.749999999999998
210
0
220
-0
230
1
0
CIRCLE
5
102
100
AcDbEntity
8
0
100
AcDbCircle
10
40.000000000000007
20
19.999999999999979
30
0
40
1.749999999999998
210
0
220
-0
230
1
0
CIRCLE
5
103
100
AcDbEntity
8
0
100
AcDbCircle
10
-40.000000000000007
20
19.999999999999979
30
0
40
1.749999999999998
210
0
220
-0
230
1
0
LWPOLYLINE
5
104
100
AcDbEntity
8
0
100
AcDbPolyline
90
32
70
1
43
0.0
10
-15.397227398121021
20
-35.156177191221339
10
-1.6768872326012763
20
-14.04796155196019
42
-0.54268604418765676
10
1.6768872326012743
20
-14.047961551960189
10
15.397227398121021
20
-35.156177191221339
42
0.40518044170404832
10
23.879943098717376
20
-37.093132297780031
10
43.242443098717374
20
-25.343132297780045
42
0.9999999925494194
10
36.757556901282612
20
-14.65686770222
10
23.160975987591137
20
-22.433463469089439
42
-0.39766344736275
10
21.826050755207088
20
-22.110404583129608
10
8.1627726319468827
20
-1.0899767011908308
42
-0.29644006798100991
10
8.1627726319468827
20
1.0899767011908281
10
22.047000125564409
20
22.450326691371629
42
-0.4051804417040491
10
23.40423463765983
20
22.760239508421019
10
36.757556901282626
20
14.656867702219953
42
0.99999999999999989
10
43.242443098717388
20
25.343132297780002
10
23.879943098717384
20
37.093132297780016
42
0.40518044170404893
10
15.397227398121021
20
35.156177191221339
10
1.6768872326012736
20
14.04796155196019
42
-0.54268604418765587
10
-1.6768872326012738
20
14.047961551960192
10
-15.397227398121021
20
35.156177191221339
42
0.40518044170404882
10
-23.879943098717384
20
37.093132297780024
10
-43.242443098717388
20
25.343132297780002
42
0.99999999999999989
10
-36.757556901282626
20
14.656867702219953
10
-23.40423463765983
20
22.760239508421019
42
-0.40518044170404804
10
-22.047000125564409
20
22.450326691371632
10
-8.1627726319468898
20
1.0899767011908357
42
-0.29644006798100941
10
-8.1627726319468898
20
-1.0899767011908199
10
-21.826050755207099
20
-22.110404583129601
42
-0.39766344736274928
10
-23.160975987591144
20
-22.433463469089435
10
-36.757556901282612
20
-14.656867702219989
42
0.99999999999999989
10
-43.242443098717374
20
-25.343132297780045
10
-23.879943098717376
20
-37.093132297780031
42
0.40518044170404832
0
CIRCLE
5
105
100
AcDbEntity
8
0
100
AcDbCircle
10
20.637500000000003
20
-31.75
30
0
40
2.6250000000000018
210
0
220
-0
230
1
0
CIRCLE
5
106
100
AcDbEntity
8
0
100
AcDbCircle
10
20.637500000000003
20
31.75
30
0
40
2.6249999999999973
210
0
220
-0
230
1
0
CIRCLE
5
107
100
AcDbEntity
8
0
100
AcDbCircle
10
-20.637500000000003
20
-31.75
30
0
40
2.6250000000000018
210
0
220
-0
230
1
0
CIRCLE
5
108
100
AcDbEntity
8
0
100
AcDbCircle
10
-20.637500000000003
20
31.75
30
0
40
2.6249999999999973
210
0
220
-0
230
1
0
ENDSEC
0
SECTION
2
OBJECTS
0
DICTIONARY
5
C
100
AcDbDictionary
3
ACAD_GROUP
350
D
3
ACAD_MLINESTYLE
350
17
0
DICTIONARY
5
D
100
AcDbDictionary
0
DICTIONARY
5
1A
330
C
100
AcDbDictionary
0
DICTIONARY
5
17
100
AcDbDictionary
0
ENDSEC
0
EOF
